<mxfile host="Electron" modified="2024-02-25T12:07:12.419Z" agent="Mozilla/5.0 (X11; Linux x86_64) AppleWebKit/537.36 (KHTML, like Gecko) draw.io/23.1.5 Chrome/120.0.6099.109 Electron/28.1.0 Safari/537.36" etag="ncZT2_D_Gx1dBBoupG98" version="23.1.5" type="device">
  <diagram name="Page-1" id="Aa67k4pF826LM2N38zdi">
    <mxGraphModel dx="1434" dy="963" grid="1" gridSize="10" guides="1" tooltips="1" connect="1" arrows="1" fold="1" page="1" pageScale="1" pageWidth="1169" pageHeight="827" math="0" shadow="0">
      <root>
        <mxCell id="0" />
        <mxCell id="1" parent="0" />
        <mxCell id="NV9Jm00qjLc1GB2YbQaA-3" value="" style="edgeStyle=orthogonalEdgeStyle;rounded=0;orthogonalLoop=1;jettySize=auto;html=1;" edge="1" parent="1" source="NV9Jm00qjLc1GB2YbQaA-1" target="NV9Jm00qjLc1GB2YbQaA-2">
          <mxGeometry relative="1" as="geometry" />
        </mxCell>
        <mxCell id="NV9Jm00qjLc1GB2YbQaA-19" value="has_one" style="edgeLabel;html=1;align=center;verticalAlign=middle;resizable=0;points=[];" vertex="1" connectable="0" parent="NV9Jm00qjLc1GB2YbQaA-3">
          <mxGeometry x="-0.1" y="-2" relative="1" as="geometry">
            <mxPoint as="offset" />
          </mxGeometry>
        </mxCell>
        <mxCell id="NV9Jm00qjLc1GB2YbQaA-5" value="" style="edgeStyle=orthogonalEdgeStyle;rounded=0;orthogonalLoop=1;jettySize=auto;html=1;" edge="1" parent="1" source="NV9Jm00qjLc1GB2YbQaA-1" target="NV9Jm00qjLc1GB2YbQaA-4">
          <mxGeometry relative="1" as="geometry" />
        </mxCell>
        <mxCell id="NV9Jm00qjLc1GB2YbQaA-7" value="" style="edgeStyle=orthogonalEdgeStyle;rounded=0;orthogonalLoop=1;jettySize=auto;html=1;" edge="1" parent="1" source="NV9Jm00qjLc1GB2YbQaA-1" target="NV9Jm00qjLc1GB2YbQaA-6">
          <mxGeometry relative="1" as="geometry" />
        </mxCell>
        <mxCell id="NV9Jm00qjLc1GB2YbQaA-17" value="has_one" style="edgeLabel;html=1;align=center;verticalAlign=middle;resizable=0;points=[];" vertex="1" connectable="0" parent="NV9Jm00qjLc1GB2YbQaA-7">
          <mxGeometry x="0.075" y="-1" relative="1" as="geometry">
            <mxPoint as="offset" />
          </mxGeometry>
        </mxCell>
        <mxCell id="NV9Jm00qjLc1GB2YbQaA-10" style="rounded=0;orthogonalLoop=1;jettySize=auto;html=1;exitX=0;exitY=1;exitDx=0;exitDy=0;entryX=1;entryY=0;entryDx=0;entryDy=0;" edge="1" parent="1" source="NV9Jm00qjLc1GB2YbQaA-1" target="NV9Jm00qjLc1GB2YbQaA-8">
          <mxGeometry relative="1" as="geometry" />
        </mxCell>
        <mxCell id="NV9Jm00qjLc1GB2YbQaA-18" value="has_many" style="edgeLabel;html=1;align=center;verticalAlign=middle;resizable=0;points=[];" vertex="1" connectable="0" parent="NV9Jm00qjLc1GB2YbQaA-10">
          <mxGeometry x="-0.0125" y="1" relative="1" as="geometry">
            <mxPoint as="offset" />
          </mxGeometry>
        </mxCell>
        <mxCell id="NV9Jm00qjLc1GB2YbQaA-1" value="account" style="rounded=1;whiteSpace=wrap;html=1;" vertex="1" parent="1">
          <mxGeometry x="280" y="80" width="120" height="60" as="geometry" />
        </mxCell>
        <mxCell id="NV9Jm00qjLc1GB2YbQaA-2" value="role" style="whiteSpace=wrap;html=1;rounded=1;" vertex="1" parent="1">
          <mxGeometry x="480" y="80" width="120" height="60" as="geometry" />
        </mxCell>
        <mxCell id="NV9Jm00qjLc1GB2YbQaA-4" value="auth" style="whiteSpace=wrap;html=1;rounded=1;" vertex="1" parent="1">
          <mxGeometry x="80" y="80" width="120" height="60" as="geometry" />
        </mxCell>
        <mxCell id="NV9Jm00qjLc1GB2YbQaA-6" value="billing account" style="whiteSpace=wrap;html=1;rounded=1;" vertex="1" parent="1">
          <mxGeometry x="280" y="220" width="120" height="60" as="geometry" />
        </mxCell>
        <mxCell id="NV9Jm00qjLc1GB2YbQaA-14" value="" style="edgeStyle=orthogonalEdgeStyle;rounded=0;orthogonalLoop=1;jettySize=auto;html=1;" edge="1" parent="1" source="NV9Jm00qjLc1GB2YbQaA-8" target="NV9Jm00qjLc1GB2YbQaA-13">
          <mxGeometry relative="1" as="geometry" />
        </mxCell>
        <mxCell id="NV9Jm00qjLc1GB2YbQaA-15" value="has_one" style="edgeLabel;html=1;align=center;verticalAlign=middle;resizable=0;points=[];" vertex="1" connectable="0" parent="NV9Jm00qjLc1GB2YbQaA-14">
          <mxGeometry x="0.075" y="2" relative="1" as="geometry">
            <mxPoint as="offset" />
          </mxGeometry>
        </mxCell>
        <mxCell id="NV9Jm00qjLc1GB2YbQaA-8" value="task" style="whiteSpace=wrap;html=1;rounded=1;" vertex="1" parent="1">
          <mxGeometry x="80" y="220" width="120" height="60" as="geometry" />
        </mxCell>
        <mxCell id="NV9Jm00qjLc1GB2YbQaA-13" value="status" style="whiteSpace=wrap;html=1;rounded=1;" vertex="1" parent="1">
          <mxGeometry x="80" y="360" width="120" height="60" as="geometry" />
        </mxCell>
      </root>
    </mxGraphModel>
  </diagram>
</mxfile>
